<?xml version="1.0" encoding="UTF-8"?>
<svg id="Layer_2" xmlns="http://www.w3.org/2000/svg" version="1.1" viewBox="0 0 2937.2 462.9">
  <!-- Generator: Adobe Illustrator 29.0.1, SVG Export Plug-In . SVG Version: 2.1.0 Build 192)  -->
  <defs>
    <style>
      .st0 {
        fill: #e7e7e7;
      }
    </style>
  </defs>
  <path class="st0" d="M86,204.8v86h-28.7v28.7h28.7v28.7H0v-28.7h28.7v-57.4h28.7v-57.4h28.7v-86h28.7v-28.7h-28.7v-28.7h172.1v28.7h28.7v86h-28.7v28.7h-57.4v-28.7h28.7v-86h-86v57.4h-28.7v57.4h-28.8Z"/>
  <path class="st0" d="M315.4,319.5h28.7v28.7h-57.4v-28.7h-28.7v-57.4h28.7v-57.4h28.7v-28.7h28.7v-28.7h86v28.7h28.7v57.4h-28.7v114.7h-57.4v-57.4h28.7v-57.4h28.7v-57.4h-86v28.7h-28.7v114.9ZM458.8,176.2v-28.7h28.7v28.7h-28.7Z"/>
  <path class="st0" d="M516.2,290.9v57.4h-28.7v-57.4h28.7ZM602.2,348.2h-57.4v-28.7h28.7v-57.4h-28.7v-28.7h-28.7v-57.4h28.7v-28.7h57.4v28.7h28.7v57.4h-28.7v-57.4h-57.4v57.4h28.7v28.7h28.7v86h0Z"/>
  <path class="st0" d="M733.3,348.2h-81.9v-20.5h-20.5v-41h41v20.5h-20.5v20.5h81.9v20.5ZM753.8,327.7h-20.5v-41h-20.5v-20.5h-20.5v-20.5h-20.5v-81.9h41v-20.5h20.5v20.5h-20.5v20.5h-20.5v20.5h20.5v41h41v81.9ZM753.8,163.9h20.5v20.5h20.5v20.5h-20.5v20.5h-20.5v-61.4h0Z"/>
  <path class="st0" d="M917.6,163.9h-20.5v41h-20.5v61.4h-20.5v41h-20.5v20.5h20.5v20.5h-41v-81.9h20.5v-41h20.5v-61.4h41v-20.5h20.5v20.5h0ZM897.1,327.7h-20.5v-20.5h20.5v20.5ZM938.1,102.4h-41v-41h41v41Z"/>
  <path class="st0" d="M958.6,348.2h-41v-20.5h20.5v-61.4h20.5v-41h20.5v-61.4h41v20.5h20.5v-20.5h41v-20.5h20.5v20.5h20.5v61.4h-20.5v61.4h-20.5v41h20.5v20.5h-61.4v-61.4h20.5v-41h20.5v-61.4h-41v20.5h-20.5v20.5h-20.5v20.5h-20.5v61.4h-20.5v41h0ZM1102,327.7v-20.5h20.5v-20.5h20.5v20.5h-20.5v20.5h-20.5Z"/>
  <path class="st0" d="M1122.4,368.7h20.5v61.4h102.4v20.5h-102.4v-20.5h-20.5v-20.5h-20.5v-20.5h20.5v-20.5h0ZM1306.8,163.9v20.5h20.5v61.4h-20.5v20.5h-20.5v20.5h-41v-20.5h20.5v-20.5h20.5v-61.4h-20.5v-20.5h-41v20.5h-20.5v81.9h20.5v20.5h-41v41h61.4v20.5h61.4v61.4h-20.5v20.5h-20.5v-20.5h20.5v-20.5h-41v-20.5h-81.9v-20.5h-20.5v-41h20.5v-20.5h20.5v-20.5h-20.5v-81.9h20.5v-20.5h41v-20.5h41v20.5h41v-20.5h61.4v41h-41v-20.5h-20.5.2Z"/>
  <path class="st0" d="M1599.7,348.2h-114.7v-14.3h28.7v-14.3h14.3v-28.7h14.3v-43h14.3v-28.7h14.3v-43h14.3v-28.7h14.3v-43h14.3v-28.7h-43v14.3h-28.7v14.3h-14.3v14.3h-14.3v14.3h-14.3v14.3h-14.3v-14.3h14.3v-28.7h14.3v-43h243.7v43h-14.3v43h-14.3v-43h-14.3v-28.7h-71.7v14.3h14.3v14.3h-14.3v28.7h-14.3v43h-14.3v43h-14.3v28.7h-14.3v43h-14.3v43h28.7v14.6Z"/>
  <path class="st0" d="M1786.1,247.8h-14.3v28.7h-14.3v43h-14.3v28.7h-43v-14.3h14.3v-28.7h14.3v-43h14.3v-43h14.3v-28.7h14.3v-43h14.3v-28.7h14.3v-43h-28.7v-14.3h71.7v28.7h-14.3v43h-14.3v28.7h-14.3v28.7h-14.3v14.3h14.3v14.3h-28.7v14.3h14.3v14.3h0ZM1857.8,305.2v14.3h28.7v14.3h-14.3v14.3h-43v-57.4h14.3v-43h14.3v-28.7h14.3v-43h-28.7v14.3h-28.7v14.3h-14.3v-14.3h14.3v-14.3h14.3v-14.3h28.7v-14.3h28.7v14.3h28.7v28.7h-14.3v43h-14.3v43h-14.3v28.7h-14.4Z"/>
  <path class="st0" d="M2044.2,161.8h-14.3v28.7h-14.3v14.3h-14.3v14.3h14.3v14.3h-14.3v43h-14.3v28.7h-14.3v43h-43v-14.3h14.3v-43h14.3v-28.7h14.3v-43h14.3v-43h-14.3v-14.3h43v-14.3h28.7v14.3h0ZM2015.5,219.2v-14.3h14.3v-14.3h14.3v-14.3h14.3v-14.3h28.7v-14.3h14.3v14.3h14.3v43h-43v-28.7h-14.3v14.3h-14.3v14.3h-14.3v14.3h-14.3Z"/>
  <path class="st0" d="M2230.5,348.2h-86v-14.3h-14.3v-14.3h-14.3v-100.4h14.3v-14.3h14.3v-14.3h14.3v-14.3h14.3v-14.3h28.7v-14.3h43v14.3h28.7v14.3h14.3v100.4h-14.3v28.7h-14.3v14.3h-14.3v14.3h-14.3v14.3h0ZM2201.9,333.9v-14.3h14.3v-14.3h14.3v-14.3h14.3v-43h14.3v-57.4h-14.3v-14.3h-14.3v-14.3h-14.3v14.3h-28.7v14.3h-14.3v28.7h-14.3v43h-14.3v57.4h14.3v14.3h43Z"/>
  <path class="st0" d="M2367.8,352.3h-28.7v-4.1h-8.2v-4.1h-4.1v-4.1h-4.1v-4.1h-4.1v-36.9h4.1v-12.3h4.1v-12.3h4.1v-8.2h4.1v-12.3h4.1v-8.2h4.1v-12.3h4.1v-8.2h4.1v-8.2h4.1v-12.3h4.1v-12.3h4.1v-16.4h-4.1v-4.1h-8.2v-4.1h-8.2v-4.1h12.3v-4.1h24.6v-4.1h16.4v-4.1h20.5v4.1h-4.1v12.3h-4.1v8.2h-4.1v12.3h-4.1v8.2h-4.1v8.2h-4.1v12.3h-4.1v8.2h-4.1v12.3h-4.1v8.2h-4.1v12.3h-4.1v8.2h-4.1v8.2h-4.1v12.3h-4.1v8.2h-4.1v16.4h-4.1v8.2h4.1v8.2h24.6v-4.1h8.2v-4.1h4.1v-4.1h4.1v-4.1h8.2v-4.1h4.1v-8.2h4.1v-4.1h4.1v-4.1h4.1v-4.1h4.1v-4.1h4.1v-8.2h4.1v-4.1h4.1v-8.2h4.1v-4.1h4.1v-12.3h4.1v-8.2h4.1v-12.3h4.1v-12.3h4.1v-8.2h4.1v-12.3h4.1v-8.2h4.1v-12.3h4.1v-12.3h4.1v-4.1h36.9v4.1h-4.1v12.3h-4.1v8.2h-4.1v12.3h-4.1v8.2h-4.1v12.3h-4.1v8.2h-4.1v12.3h-4.1v12.3h-4.1v8.2h-4.1v12.3h-4.1v8.2h-4.1v12.3h-4.1v12.3h-4.1v8.2h-4.1v16.4h4.1v4.1h8.2v-4.1h8.2v-4.1h8.2v-4.1h4.1v-4.1h4.1v-4.1h4.1v-4.1h4.1v-4.1h4.1v-4.1h8.2v4.1h-4.1v4.1h-4.1v4.1h-4.1v4.1h-4.1v8.2h-4.1v4.1h-4.1v4.1h-4.1v4.1h-4.1v4.1h-8.2v4.1h-4.1v4.1h-8.2v4.1h-12.3v4.1h-12.3v-4.1h-8.2v-4.1h-4.1v-4.1h-4.1v-24.6h4.1v-4.1h4.1v-8.2h4.1v-4.1h4.1v-8.2h4.1v-12.3h4.1v-4.1h-4.1v4.1h-4.1v8.2h-4.1v4.1h-4.1v8.2h-4.1v4.1h-4.1v4.1h-4.1v4.1h-4.1v4.1h-4.1v4.1h-4.1v4.1h-4.1v4.1h-4.1v4.1h-4.1v4.1h-4.1v4.1h-4.1v4.1h-8.2v4.1h-8.2v4.1h0Z"/>
  <path class="st0" d="M2707.8,155.7v4.1h-8.2v4.1h-4.1v4.1h-4.1v4.1h-4.1v4.1h4.1v4.1h4.1v8.2h4.1v12.3h4.1v32.8h-4.1v12.3h-4.1v8.2h-4.1v4.1h-4.1v8.2h-4.1v4.1h-4.1v4.1h-4.1v4.1h-8.2v4.1h-4.1v4.1h-8.2v4.1h-12.3v4.1h-45.1v-4.1h-12.3v4.1h-12.3v4.1h-4.1v4.1h-4.1v4.1h-4.1v16.4h4.1v4.1h12.3v4.1h24.6v4.1h28.7v4.1h24.6v4.1h16.4v4.1h8.2v4.1h8.2v4.1h4.1v4.1h4.1v32.8h-4.1v8.2h-4.1v8.2h-4.1v4.1h-4.1v4.1h-4.1v4.1h-4.1v4.1h-8.2v4.1h-4.1v4.1h-12.3v4.1h-12.3v4.1h-16.4v4.1h-69.6v-4.1h-20.5v-4.1h-8.2v-4.1h-8.2v-4.1h-8.2v-4.1h-4.1v-8.2h-4.1v-24.6h4.1v-8.2h4.1v-4.1h4.1v-4.1h4.1v-4.1h8.2v-4.1h8.2v-4.1h8.2v-4.1h12.3v-4.1h12.3v-4.1h-16.4v4.1h-8.2v-4.1h-4.1v-8.2h-4.1v-24.6h4.1v-8.2h4.1v-4.1h4.1v-4.1h4.1v-4.1h4.1v-4.1h8.2v-4.1h8.2v-4.1h12.3v-4.1h8.2v-4.1h-20.5v-4.1h-4.1v-4.1h-4.1v-8.2h-4.1v-8.2h-4.1v-12.3h-4.1v-20.5h4.1v-16.4h4.1v-8.2h4.1v-8.2h4.1v-4.1h4.1v-4.1h4.1v-4.1h4.1v-4.1h4.1v-4.1h8.2v-4.1h4.1v-4.1h12.3v-4.1h12.3v-4.1h32.8v4.1h16.4v4.1h8.2v4.1h4.1v4.1h4.1v-4.1h4.1v-4.1h4.1v-4.1h4.1v-4.1h8.2v-4.1h4.1v-4.1h12.3v-4.1h20.5v4.1h8.2v4.1h4.1v24.6h-4.1v4.1h-4.1v4.1h-4.1v4.1h-16.4v-4.1h-4.1v-4.1h-4.1v-12.3h8.2v-8.2h-12.4ZM2621.8,430.1v-4.1h16.4v-4.1h8.2v-4.1h4.1v-4.1h4.1v-4.1h4.1v-4.1h4.1v-16.4h-4.1v-4.1h-4.1v-4.1h-16.4v-4.1h-24.6v-4.1h-28.7v-4.1h-24.6v-4.1h-4.1v4.1h-8.2v4.1h-4.1v4.1h-4.1v4.1h-4.1v4.1h-4.1v4.1h-4.1v20.5h4.1v8.2h4.1v4.1h8.2v4.1h16.4v4.1h61.5ZM2634.1,278.6v-4.1h4.1v-4.1h8.2v-4.1h4.1v-8.2h4.1v-4.1h4.1v-8.2h4.1v-12.3h4.1v-41h-4.1v-8.2h-4.1v-8.2h-8.2v-4.1h-8.2v-4.1h-20.5v4.1h-8.2v4.1h-8.2v4.1h-4.1v4.1h-4.1v8.2h-4.1v4.1h-4.1v8.2h-4.1v16.4h-4.1v32.8h4.1v8.2h4.1v8.2h4.1v4.1h8.2v4.1h32.8,0Z"/>
  <path class="st0" d="M2875.7,303.1v24.6h12.3v-4.1h8.2v-4.1h8.2v-4.1h4.1v-4.1h4.1v-4.1h4.1v-4.1h8.2v-4.1h4.1v4.1h-4.1v4.1h-4.1v4.1h-4.1v4.1h-4.1v4.1h-4.1v4.1h-4.1v4.1h-4.1v4.1h-4.1v4.1h-4.1v4.1h-4.1v4.1h-8.2v4.1h-16.4v4.1h-8.2v-4.1h-12.3v-4.1h-4.1v-8.2h-4.1v-16.4h4.1v-12.3h4.1v-12.3h4.1v-8.2h4.1v-12.3h4.1v-8.2h4.1v-12.3h4.1v-8.2h4.1v-8.2h4.1v-12.3h4.1v-8.2h4.1v-12.3h4.1v-8.2h4.1v-12.3h-4.1v-8.2h-24.6v4.1h-8.2v4.1h-8.2v4.1h-4.1v4.1h-4.1v4.1h-4.1v4.1h-4.1v4.1h-4.1v4.1h-4.1v4.1h-4.1v4.1h-4.1v4.1h-4.1v4.1h-4.1v8.2h-4.1v4.1h-4.1v4.1h-4.1v8.2h-4.1v8.2h-4.1v12.3h-4.1v12.3h-4.1v8.2h-4.1v12.3h-4.1v8.2h-4.1v12.3h-4.1v8.2h-4.1v12.3h-4.1v4.1h-32.8v-12.3h4.1v-8.2h4.1v-12.3h4.1v-12.3h4.1v-8.2h4.1v-12.3h4.1v-8.2h4.1v-12.3h4.1v-12.3h4.1v-8.2h4.1v-12.3h4.1v-8.2h4.1v-12.3h4.1v-8.2h4.1v-12.3h4.1v-8.2h4.1v-12.3h4.1v-8.2h4.1v-12.3h4.1v-12.3h4.1v-8.2h4.1v-12.3h4.1v-8.2h4.1v-16.4h4.1v-4.1h-4.1v-8.2h-4.1v-4.1h-8.2v-4.1h-8.2v-4.1h20.5v-4.1h24.6v-4.1h24.6v-4.1h4.1v8.2h-4.1v12.3h-4.1v8.2h-4.1v12.3h-4.1v8.2h-4.1v12.3h-4.1v8.2h-4.1v12.3h-4.1v8.2h-4.1v12.3h-4.1v8.2h-4.1v12.3h-4.1v8.2h-4.1v8.2h-4.1v4.1h-4.1v8.2h-4.1v4.1h-4.1v8.2h-4.1v8.2h-4.1v4.1h4.1v-4.1h4.1v-8.2h4.1v-4.1h4.1v-4.1h4.1v-4.1h4.1v-8.2h4.1v-4.1h4.1v-4.1h4.1v-4.1h4.1v-4.1h4.1v-4.1h8.2v-4.1h4.1v-4.1h4.1v-4.1h8.2v-4.1h8.2v-4.1h12.3v-4.1h24.6v4.1h12.3v4.1h4.1v4.1h4.1v12.3h4.1v12.3h-4.1v16.4h-4.1v8.2h-4.1v12.3h-4.1v8.2h-4.1v12.3h-4.1v8.2h-4.1v8.2h-4.1v12.3h-4.1v8.2h-4.1v8.2h-4.1v12.3h-4.1,0Z"/>
</svg>